<svg width="30" height="29" fill="none" xmlns="http://www.w3.org/2000/svg">
    <path fill-rule="evenodd" clip-rule="evenodd" d="M14.969.75C7.194.75.892 6.906.892 14.5s6.302 13.75 14.077 13.75 14.077-6.156 14.077-13.75S22.744.75 14.97.75Zm0 24.75c-6.22 0-11.262-4.925-11.262-11s5.042-11 11.262-11c6.22 0 11.262 4.925 11.262 11s-5.042 11-11.262 11Zm1.408-19.25V9H13.56V6.25h2.816Zm-4.223 5.5h4.223v9.625h1.408v1.375h-5.632v-1.375h1.408v-8.25h-1.408V11.75Z" fill="#000"/>
    <mask id="a" style="mask-type:alpha" maskUnits="userSpaceOnUse" x="0" y="0" width="30" height="29">
        <path fill-rule="evenodd" clip-rule="evenodd" d="M14.969.75C7.194.75.892 6.906.892 14.5s6.302 13.75 14.077 13.75 14.077-6.156 14.077-13.75S22.744.75 14.97.75Zm0 24.75c-6.22 0-11.262-4.925-11.262-11s5.042-11 11.262-11c6.22 0 11.262 4.925 11.262 11s-5.042 11-11.262 11Zm1.408-19.25V9H13.56V6.25h2.816Zm-4.223 5.5h4.223v9.625h1.408v1.375h-5.632v-1.375h1.408v-8.25h-1.408V11.75Z" fill="#fff"/>
    </mask>
    <g mask="url(#a)">
        <path fill="#000" d="M.892.75h28.155v27.5H.892z"/>
    </g>
</svg>
